<?xml version="1.0" encoding="utf-8"?>
<!-- Generator: Adobe Illustrator 15.0.0, SVG Export Plug-In . SVG Version: 6.00 Build 0)  -->
<!DOCTYPE svg PUBLIC "-//W3C//DTD SVG 1.1//EN" "http://www.w3.org/Graphics/SVG/1.1/DTD/svg11.dtd">
<svg version="1.1" id="Layer_1" xmlns="http://www.w3.org/2000/svg" xmlns:xlink="http://www.w3.org/1999/xlink" x="0px" y="0px"
	 width="300px" height="100px" viewBox="0 0 300 100" enable-background="new 0 0 300 100" xml:space="preserve">
<g>
	<path fill="#55A145" d="M18.728,56.965c1.238-1.062,2.243-1.944,3.018-2.653c0.773-0.707,1.437-1.354,1.99-1.94
		c0.552-0.585,1.056-1.177,1.509-1.774c0.452-0.597,0.989-1.304,1.608-2.123c0.618-0.817,1.371-1.818,2.255-3.001
		c0.883-1.182,2.034-2.658,3.449-4.428c0.287-0.398,0.607-0.784,0.962-1.161c0.353-0.375,0.746-0.713,1.177-1.012
		s0.906-0.541,1.426-0.729c0.519-0.187,1.099-0.282,1.741-0.282c1.062,0,1.878,0.116,2.455,0.349
		c0.574,0.232,0.995,0.514,1.26,0.846c0.265,0.332,0.419,0.68,0.464,1.044c0.043,0.365,0.066,0.68,0.066,0.945
		c0,0.531-0.211,1.117-0.63,1.758c-0.421,0.642-0.885,1.26-1.393,1.857c-0.51,0.597-0.99,1.144-1.443,1.642
		c-0.454,0.498-0.713,0.869-0.779,1.111c0,0.686,0.05,1.31,0.149,1.874c0.1,0.564,0.232,1.117,0.398,1.659
		c0.166,0.543,0.336,1.117,0.514,1.725c0.176,0.609,0.348,1.31,0.514,2.105c0.166,0.797,0.298,1.715,0.398,2.753
		c0.099,1.04,0.149,2.268,0.149,3.682c0.796-0.53,1.652-1.012,2.57-1.442c0.917-0.432,1.874-0.879,2.869-1.344
		c0.995-0.464,2.017-0.979,3.068-1.542c1.049-0.563,2.106-1.244,3.167-2.04l0.033,7.43c-1.372,1.062-2.958,2.057-4.76,2.984
		c-1.803,0.929-3.693,1.748-5.671,2.455c-1.979,0.708-3.98,1.266-6.003,1.675c-2.023,0.408-3.942,0.613-5.754,0.613
		c-1.306,0-2.521-0.122-3.648-0.365c-1.127-0.242-2.118-0.624-2.968-1.144c-0.852-0.519-1.542-1.198-2.073-2.04
		c-0.531-0.84-0.852-1.857-0.962-3.051c-0.311,0.066-0.613,0.111-0.912,0.132c-0.298,0.023-0.592,0.033-0.879,0.033
		c-0.354,0-0.686-0.01-0.995-0.033c-0.311-0.021-0.576-0.104-0.796-0.248c-0.222-0.144-0.398-0.376-0.53-0.696
		c-0.133-0.32-0.199-0.78-0.199-1.377c0-0.53,0.133-1.022,0.398-1.476c0.265-0.452,0.574-0.856,0.929-1.211
		c0.353-0.353,0.707-0.663,1.062-0.929C18.284,57.33,18.549,57.12,18.728,56.965z M22.973,61.21c0.265,0,0.558,0.166,0.879,0.498
		c0.32,0.331,0.69,0.696,1.111,1.094c0.419,0.398,0.906,0.763,1.459,1.095c0.552,0.332,1.182,0.497,1.891,0.497
		c0.862,0,1.575-0.143,2.139-0.431c0.564-0.286,1.012-0.668,1.343-1.145c0.332-0.475,0.564-1.028,0.696-1.658
		c0.133-0.63,0.199-1.287,0.199-1.974c0-0.597-0.039-1.204-0.116-1.824c-0.078-0.617-0.178-1.21-0.298-1.774
		c-0.122-0.563-0.255-1.094-0.398-1.592c-0.145-0.497-0.271-0.922-0.381-1.276L22.973,61.21z"/>
	<path fill="#55A145" d="M48.478,62.769c0-1.459,0.087-3.145,0.265-5.058c0.177-1.911,0.398-3.857,0.664-5.837
		c0.265-1.978,0.564-3.885,0.896-5.721c0.332-1.835,0.651-3.404,0.962-4.71c0.243-1.016,0.713-1.868,1.409-2.554
		c0.697-0.685,1.642-1.028,2.836-1.028s2.023,0.365,2.487,1.095s0.697,1.704,0.697,2.918c0,0.332-0.033,0.779-0.1,1.343
		s-0.149,1.184-0.249,1.857c-0.099,0.675-0.205,1.372-0.315,2.089c-0.111,0.719-0.215,1.382-0.315,1.99
		c-0.1,0.609-0.183,1.14-0.249,1.592c-0.066,0.454-0.099,0.759-0.099,0.912h0.663c0.133-0.243,0.342-0.635,0.63-1.177
		c0.286-0.542,0.618-1.166,0.995-1.874c0.375-0.707,0.78-1.453,1.211-2.239c0.431-0.784,0.833-1.536,1.21-2.255
		c0.375-0.717,0.718-1.354,1.028-1.907c0.309-0.552,0.541-0.962,0.696-1.228c0.707-1.194,1.514-2.011,2.421-2.454
		c0.906-0.442,1.912-0.664,3.019-0.664c1.105,0,1.984,0.464,2.637,1.393c0.651,0.929,0.978,2.212,0.978,3.847
		c0,0.245-0.05,0.653-0.149,1.228c-0.1,0.576-0.228,1.26-0.381,2.056c-0.155,0.796-0.327,1.67-0.514,2.62
		c-0.188,0.951-0.36,1.924-0.514,2.919c-0.155,0.995-0.282,1.979-0.381,2.951c-0.1,0.975-0.149,1.87-0.149,2.687
		c0,1.372,0.17,2.5,0.514,3.383c0.342,0.886,0.879,1.327,1.608,1.327c0.332,0,0.713-0.1,1.145-0.299s0.896-0.458,1.393-0.779
		c0.498-0.319,1.006-0.69,1.526-1.111c0.519-0.419,1.033-0.85,1.542-1.293c1.171-1.039,2.399-2.21,3.682-3.516l0.564,7.429
		l-1.658,1.261c-0.908,0.686-1.831,1.372-2.77,2.057c-0.941,0.686-1.919,1.299-2.935,1.841c-1.018,0.542-2.079,0.984-3.184,1.326
		c-1.106,0.344-2.268,0.514-3.482,0.514c-1.217,0-2.239-0.879-3.068-2.637s-1.244-4.328-1.244-7.711
		c0-1.326,0.087-2.757,0.265-4.295c0.176-1.536,0.398-3.188,0.664-4.958h-0.531l-8.689,17.246c-0.443,0.907-0.941,1.525-1.493,1.857
		c-0.553,0.332-1.194,0.497-1.924,0.497c-0.907,0-1.637-0.192-2.189-0.58c-0.553-0.386-0.978-0.906-1.277-1.559
		c-0.298-0.651-0.498-1.394-0.597-2.223C48.527,64.51,48.478,63.653,48.478,62.769z"/>
	<path fill="#55A145" d="M113.915,61.575c-0.51,0.708-1.189,1.537-2.04,2.487c-0.852,0.951-1.807,1.857-2.869,2.72
		s-2.201,1.592-3.416,2.188c-1.217,0.598-2.433,0.896-3.648,0.896c-1.459,0-2.676-0.469-3.648-1.409
		c-0.974-0.939-1.813-2.306-2.521-4.096c-0.531,0.619-1.184,1.249-1.957,1.89c-0.775,0.643-1.621,1.223-2.538,1.741
		c-0.918,0.521-1.874,0.945-2.869,1.277s-1.99,0.497-2.985,0.497c-1.062,0-2.096-0.215-3.101-0.646
		c-1.007-0.431-1.896-1.049-2.67-1.857c-0.775-0.807-1.393-1.791-1.857-2.951C77.332,63.15,77.1,61.84,77.1,60.381
		c0-1.658,0.232-3.36,0.696-5.107c0.464-1.746,1.105-3.454,1.924-5.125c0.817-1.668,1.785-3.244,2.902-4.726
		c1.116-1.48,2.338-2.774,3.665-3.88c1.327-1.105,2.724-1.984,4.195-2.637c1.47-0.651,2.968-0.979,4.494-0.979
		c0.508,0,0.906,0.1,1.194,0.299c0.287,0.199,0.525,0.426,0.713,0.68c0.187,0.255,0.369,0.503,0.547,0.746
		c0.177,0.245,0.398,0.421,0.664,0.531c0.265,0.112,0.535,0.183,0.812,0.216c0.276,0.033,0.558,0.05,0.846,0.05
		c0.243,0,0.492-0.005,0.746-0.017c0.253-0.011,0.502-0.017,0.747-0.017c0.332,0,0.641,0.033,0.929,0.099
		c0.286,0.066,0.541,0.211,0.763,0.431c0.22,0.222,0.392,0.531,0.514,0.929c0.121,0.398,0.182,0.941,0.182,1.625
		c0,1.061-0.111,2.238-0.332,3.532c-0.222,1.294-0.464,2.621-0.729,3.98c-0.266,1.359-0.51,2.72-0.73,4.079
		c-0.222,1.36-0.332,2.648-0.332,3.864c0,1.04,0.093,1.853,0.282,2.438c0.187,0.586,0.591,0.879,1.211,0.879
		c0.464,0,0.95-0.116,1.459-0.349c0.508-0.231,1.022-0.535,1.542-0.912c0.519-0.375,1.039-0.8,1.559-1.276
		c0.519-0.475,1.012-0.967,1.476-1.477c1.083-1.193,2.612-2.973,3.719-4.477L113.915,61.575z M85.59,58.955
		c0,0.553,0.038,1.09,0.116,1.608c0.077,0.52,0.216,0.984,0.415,1.393c0.199,0.41,0.464,0.742,0.796,0.995
		c0.332,0.255,0.751,0.382,1.26,0.382c0.817,0,1.559-0.354,2.222-1.062c0.664-0.707,1.238-1.559,1.725-2.554
		c0.486-0.995,0.879-2.023,1.178-3.085c0.298-1.061,0.491-1.944,0.58-2.653l2.023-9.75c-0.908,0-1.791,0.228-2.653,0.68
		c-0.862,0.454-1.675,1.067-2.438,1.841c-0.763,0.775-1.465,1.658-2.106,2.653c-0.642,0.995-1.194,2.04-1.658,3.134
		s-0.825,2.195-1.078,3.3C85.717,56.943,85.59,57.982,85.59,58.955z"/>
	<path fill="#55A145" d="M123.533,63.797c2.232,0,4.266-0.22,6.103-0.663c1.834-0.441,3.499-1.039,4.992-1.791
		c1.492-0.751,2.84-1.63,4.046-2.637c1.205-1.006,2.293-2.083,3.267-3.233l0.365,7.595c-0.708,0.862-1.565,1.697-2.57,2.504
		c-1.007,0.809-2.106,1.516-3.3,2.123c-1.194,0.608-2.45,1.094-3.764,1.459c-1.316,0.365-2.616,0.547-3.897,0.547
		c-0.155,0-0.348-0.021-0.581-0.066c-0.232-0.043-0.636-0.12-1.21-0.231c-0.576-0.11-1.399-0.26-2.471-0.448
		c-1.074-0.187-2.527-0.414-4.361-0.68v0.597c0,4.024-0.338,7.679-1.012,10.962c-0.675,3.283-1.576,6.086-2.703,8.407
		c-1.127,2.322-2.421,4.113-3.88,5.373c-1.459,1.261-2.975,1.891-4.544,1.891c-1.26,0-2.31-0.311-3.151-0.929
		c-0.839-0.619-1.509-1.455-2.006-2.504c-0.498-1.051-0.85-2.278-1.062-3.682c-0.209-1.405-0.315-2.892-0.315-4.461
		c0-0.907,0.145-1.93,0.431-3.067c0.288-1.14,0.675-2.334,1.161-3.582c0.487-1.25,1.034-2.521,1.642-3.814
		c0.609-1.293,1.231-2.549,1.874-3.765c1.503-2.829,3.217-5.748,5.141-8.756c0.243-1.725,0.491-3.492,0.746-5.307
		c0.253-1.812,0.574-3.569,0.962-5.273c0.386-1.702,0.873-3.317,1.459-4.842c0.585-1.526,1.337-2.853,2.255-3.98
		c0.917-1.127,2.017-2.023,3.3-2.687c1.281-0.663,2.83-0.995,4.643-0.995c1.348,0,2.608,0.183,3.781,0.547
		c1.171,0.365,2.199,0.958,3.084,1.774c0.883,0.819,1.58,1.874,2.089,3.167c0.508,1.293,0.763,2.881,0.763,4.759
		c0,1.504-0.222,2.958-0.663,4.361c-0.443,1.405-1.134,2.748-2.073,4.029c-0.94,1.283-2.135,2.483-3.582,3.599
		c-1.449,1.117-3.167,2.118-5.158,3.002L123.533,63.797z M107.812,84.327c0,0.176,0.038,0.464,0.116,0.862
		c0.077,0.397,0.204,0.796,0.382,1.193c0.176,0.398,0.408,0.751,0.696,1.062c0.287,0.31,0.641,0.465,1.062,0.465
		c0.375,0,0.684-0.205,0.928-0.614c0.243-0.41,0.442-0.957,0.597-1.642c0.154-0.686,0.265-1.459,0.332-2.321
		s0.121-1.747,0.166-2.653c0.043-0.907,0.071-1.791,0.083-2.653c0.01-0.862,0.038-1.638,0.083-2.321
		c0.066-1.194,0.116-2.206,0.149-3.035s0.061-1.521,0.083-2.073c0.021-0.619,0.044-1.138,0.066-1.559
		c-0.421,0.729-0.829,1.575-1.227,2.537s-0.775,1.962-1.128,3.002c-0.354,1.038-0.675,2.077-0.962,3.117
		c-0.288,1.039-0.537,2.007-0.746,2.902c-0.211,0.896-0.377,1.669-0.498,2.321C107.872,83.568,107.812,84.039,107.812,84.327z
		 M119.354,60.447c1.327-0.663,2.471-1.403,3.433-2.223c0.962-0.816,1.791-1.691,2.488-2.62c0.696-0.928,1.265-1.89,1.708-2.885
		c0.442-0.995,0.796-2.011,1.062-3.052c0.11-0.485,0.182-1.055,0.215-1.708c0.033-0.651-0.033-1.265-0.199-1.84
		c-0.166-0.575-0.454-1.066-0.862-1.476c-0.41-0.409-0.978-0.614-1.708-0.614c-0.818,0-1.538,0.228-2.156,0.68
		c-0.62,0.454-1.156,1.067-1.608,1.841c-0.454,0.775-0.829,1.691-1.127,2.752c-0.299,1.062-0.543,2.202-0.73,3.417
		c-0.188,1.217-0.321,2.482-0.398,3.797C119.392,57.833,119.354,59.144,119.354,60.447z"/>
	<path fill="#55A145" d="M136.335,70.961c0-0.111,0.027-0.785,0.083-2.023c0.055-1.237,0.16-2.885,0.315-4.941
		c0.154-2.057,0.365-4.428,0.63-7.114c0.266-2.687,0.614-5.526,1.045-8.524c0.431-2.995,0.939-6.069,1.525-9.22
		c0.585-3.15,1.282-6.218,2.09-9.204c0.806-2.985,1.729-5.798,2.769-8.44c1.039-2.642,2.206-4.953,3.499-6.932
		c1.293-1.978,2.736-3.543,4.328-4.693c1.592-1.148,3.338-1.725,5.24-1.725c0.751,0,1.543,0.133,2.372,0.398
		c0.829,0.266,1.586,0.697,2.271,1.293c0.685,0.597,1.254,1.389,1.708,2.372c0.452,0.984,0.68,2.195,0.68,3.632
		c0,1.305-0.205,2.802-0.613,4.494c-0.41,1.692-0.984,3.499-1.725,5.423c-0.742,1.924-1.614,3.926-2.62,6.003
		c-1.007,2.079-2.106,4.152-3.3,6.219c-1.194,2.068-2.45,4.102-3.765,6.103c-1.316,2.002-2.659,3.876-4.03,5.622l-0.066,0.531
		c0.442-0.22,0.773-0.365,0.995-0.431c0.22-0.066,0.452-0.1,0.696-0.1c0.287,0,0.519,0.029,0.697,0.083
		c0.177,0.056,0.336,0.116,0.48,0.183c0.144,0.066,0.293,0.128,0.448,0.182c0.153,0.056,0.342,0.083,0.563,0.083
		c2.189,0,4.123-0.259,5.805-0.779c1.679-0.519,3.095-1.099,4.245-1.741c1.348-0.729,2.521-1.58,3.516-2.554l-0.729,8.059
		c-1.46,0.796-2.985,1.416-4.577,1.857c-1.592,0.443-3.063,0.775-4.411,0.995c-1.571,0.244-3.13,0.397-4.677,0.464
		c0.796,1.46,1.514,2.975,2.156,4.544c0.552,1.35,1.055,2.858,1.509,4.527c0.452,1.671,0.68,3.355,0.68,5.058
		c0,0.199-0.028,0.618-0.083,1.261c-0.056,0.641-0.149,1.426-0.281,2.354c-0.133,0.929-0.321,1.957-0.564,3.085
		c-0.244,1.127-0.559,2.266-0.945,3.416c-0.387,1.148-0.857,2.26-1.409,3.333c-0.554,1.072-1.2,2.023-1.94,2.853
		c-0.742,0.829-1.592,1.497-2.554,2.006s-2.052,0.764-3.267,0.764c-1.217,0-2.278-0.277-3.184-0.829
		c-0.908-0.554-1.681-1.3-2.322-2.239c-0.642-0.94-1.177-2.035-1.608-3.283c-0.431-1.25-0.769-2.57-1.012-3.964
		c-0.244-1.393-0.415-2.814-0.514-4.262C136.385,73.708,136.335,72.309,136.335,70.961z M145.19,55.041
		c-0.089,0-0.188,0.249-0.298,0.746c-0.111,0.498-0.215,1.14-0.315,1.924c-0.1,0.785-0.194,1.664-0.282,2.637
		c-0.089,0.974-0.166,1.93-0.232,2.869c-0.066,0.94-0.122,1.813-0.166,2.62c-0.045,0.808-0.066,1.442-0.066,1.907
		c0,3.25,0.06,5.837,0.182,7.761c0.121,1.924,0.276,3.383,0.464,4.378c0.187,0.995,0.398,1.642,0.63,1.94
		c0.232,0.298,0.469,0.447,0.713,0.447c0.751,0,1.354-0.344,1.808-1.028c0.452-0.686,0.796-1.554,1.028-2.604
		c0.232-1.051,0.386-2.201,0.464-3.449c0.077-1.25,0.116-2.449,0.116-3.599c0-0.774-0.062-1.725-0.182-2.852
		c-0.122-1.128-0.288-2.306-0.498-3.532c-0.211-1.228-0.454-2.448-0.73-3.665c-0.277-1.216-0.563-2.306-0.862-3.268
		c-0.298-0.961-0.603-1.741-0.912-2.338C145.742,55.34,145.456,55.041,145.19,55.041z M153.25,18.857
		c-1.283,3.184-2.289,5.986-3.019,8.408c-0.729,2.421-1.283,4.572-1.658,6.451c-0.377,1.88-0.643,3.532-0.796,4.958
		c-0.155,1.426-0.311,2.748-0.464,3.963c1.348-2.542,2.708-5.046,4.08-7.512c1.37-2.465,2.607-4.753,3.714-6.866
		c1.105-2.11,2.007-3.974,2.703-5.588c0.697-1.613,1.045-2.84,1.045-3.682c0-1.171-0.166-2.027-0.497-2.57
		c-0.332-0.541-0.786-0.812-1.36-0.812c-1.018,0-1.791,0.271-2.321,0.812C154.146,16.962,153.669,17.774,153.25,18.857z"/>
	<path fill="#55A145" d="M162.304,62.769c0-0.972,0.055-2.105,0.166-3.399c0.11-1.293,0.26-2.657,0.448-4.096
		c0.187-1.437,0.408-2.902,0.663-4.395c0.253-1.493,0.524-2.913,0.812-4.262c0.286-1.348,0.574-2.587,0.862-3.714
		c0.286-1.128,0.574-2.056,0.862-2.786c0.176-0.485,0.353-0.873,0.53-1.161c0.177-0.287,0.382-0.514,0.614-0.68
		c0.231-0.166,0.519-0.276,0.862-0.332c0.342-0.054,0.767-0.083,1.276-0.083c0.574,0,1.022,0.029,1.344,0.083
		c0.319,0.056,0.558,0.188,0.713,0.398c0.153,0.211,0.249,0.514,0.281,0.912c0.033,0.398,0.05,0.941,0.05,1.625
		c0,0.818,0,1.807,0,2.968c0,1.161,0.021,2.305,0.066,3.433h0.365c0.441-0.883,0.939-1.874,1.492-2.968
		c0.552-1.095,1.194-2.117,1.924-3.068c0.729-0.95,1.559-1.752,2.487-2.405c0.929-0.651,2.001-0.979,3.218-0.979
		c0.419,0,0.829,0.073,1.227,0.216c0.398,0.145,0.746,0.348,1.045,0.614c0.299,0.265,0.535,0.592,0.713,0.978
		c0.177,0.388,0.266,0.825,0.266,1.31c0,0.377-0.056,0.902-0.166,1.576c-0.111,0.675-0.232,1.382-0.365,2.123
		c-0.132,0.742-0.254,1.459-0.364,2.156c-0.111,0.696-0.166,1.277-0.166,1.741c0,0.796,0.077,1.459,0.232,1.99
		c0.153,0.531,0.358,0.958,0.613,1.277c0.253,0.321,0.541,0.547,0.862,0.68c0.319,0.133,0.657,0.199,1.012,0.199
		c0.995,0,2.023-0.221,3.084-0.663c1.062-0.442,2.034-0.939,2.919-1.493c1.039-0.641,2.057-1.37,3.052-2.189l-0.498,7.761
		c-0.576,0.377-1.227,0.796-1.957,1.26c-0.729,0.465-1.509,0.902-2.338,1.311c-0.829,0.41-1.691,0.752-2.587,1.028
		c-0.896,0.277-1.808,0.414-2.736,0.414c-1.658,0-2.997-0.336-4.013-1.012c-1.018-0.674-1.824-1.559-2.422-2.653
		c-0.597-1.094-1.04-2.321-1.326-3.681c-0.288-1.36-0.521-2.736-0.696-4.129H176.2l-5.937,16.55
		c-0.311,0.862-0.603,1.575-0.879,2.139c-0.277,0.563-0.56,1.023-0.846,1.377c-0.288,0.354-0.597,0.603-0.929,0.746
		c-0.331,0.145-0.696,0.215-1.095,0.215c-0.907,0-1.637-0.192-2.188-0.58c-0.554-0.386-0.979-0.906-1.277-1.559
		c-0.298-0.651-0.497-1.394-0.597-2.223S162.304,63.653,162.304,62.769z"/>
	<path fill="#55A145" d="M202.17,69.7c-2.079,0-3.897-0.375-5.456-1.127c-1.559-0.751-2.858-1.763-3.897-3.035
		c-1.04-1.271-1.819-2.74-2.338-4.411c-0.52-1.669-0.779-3.421-0.779-5.257c0-1.237,0.12-2.548,0.365-3.93
		c0.242-1.381,0.613-2.736,1.11-4.063c0.498-1.327,1.122-2.592,1.874-3.798c0.751-1.205,1.63-2.266,2.637-3.184
		c1.006-0.917,2.134-1.646,3.383-2.189c1.249-0.541,2.637-0.812,4.163-0.812c1.237,0,2.388,0.199,3.449,0.597
		c1.061,0.398,1.983,0.958,2.769,1.675c0.784,0.719,1.398,1.587,1.841,2.604c0.442,1.018,0.664,2.156,0.664,3.416
		c0,1.372-0.338,2.743-1.012,4.113c-0.676,1.372-1.608,2.666-2.803,3.88c-1.194,1.217-2.615,2.301-4.262,3.25
		c-1.647,0.952-3.433,1.691-5.356,2.223c0.332,0.597,0.657,1.095,0.979,1.492c0.319,0.398,0.646,0.709,0.979,0.929
		c0.331,0.222,0.68,0.377,1.045,0.465c0.364,0.089,0.756,0.132,1.177,0.132c1.327,0,2.725-0.265,4.195-0.796
		c1.471-0.53,2.902-1.193,4.295-1.989c1.394-0.796,2.708-1.663,3.947-2.604c1.237-0.939,2.288-1.829,3.15-2.67l4.279,4.444
		c-1.946,2.012-4.014,3.793-6.202,5.339c-0.952,0.664-1.974,1.316-3.068,1.957c-1.095,0.643-2.245,1.211-3.449,1.708
		c-1.206,0.498-2.454,0.896-3.748,1.194C204.807,69.552,203.496,69.7,202.17,69.7z M197.759,54.112c0.796,0,1.663-0.203,2.604-0.613
		c0.939-0.408,1.812-0.934,2.62-1.575c0.807-0.641,1.486-1.337,2.04-2.09c0.552-0.75,0.829-1.48,0.829-2.189
		c0-0.995-0.183-1.812-0.548-2.454c-0.364-0.641-0.812-0.962-1.343-0.962c-0.951,0-1.764,0.178-2.438,0.531
		c-0.676,0.354-1.239,0.812-1.692,1.376c-0.453,0.563-0.818,1.206-1.094,1.923c-0.277,0.719-0.487,1.443-0.631,2.172
		c-0.145,0.73-0.238,1.438-0.281,2.123C197.779,53.041,197.759,53.627,197.759,54.112z"/>
	<path fill="#55A145" d="M216,56.965c1.237-1.062,2.243-1.944,3.019-2.653c0.772-0.707,1.437-1.354,1.989-1.94
		c0.552-0.585,1.056-1.177,1.51-1.774c0.452-0.597,0.988-1.304,1.608-2.123c0.618-0.817,1.37-1.818,2.255-3.001
		c0.884-1.182,2.034-2.658,3.449-4.428c0.287-0.398,0.607-0.784,0.962-1.161c0.353-0.375,0.746-0.713,1.178-1.012
		c0.431-0.298,0.906-0.541,1.426-0.729c0.519-0.187,1.1-0.282,1.741-0.282c1.062,0,1.879,0.116,2.454,0.349
		c0.575,0.232,0.995,0.514,1.261,0.846c0.266,0.332,0.419,0.68,0.464,1.044c0.044,0.365,0.066,0.68,0.066,0.945
		c0,0.531-0.211,1.117-0.63,1.758c-0.421,0.642-0.885,1.26-1.393,1.857c-0.51,0.597-0.991,1.144-1.443,1.642
		c-0.453,0.498-0.713,0.869-0.779,1.111c0,0.686,0.05,1.31,0.149,1.874c0.1,0.564,0.232,1.117,0.398,1.659
		c0.165,0.543,0.336,1.117,0.514,1.725c0.177,0.609,0.349,1.31,0.514,2.105c0.166,0.797,0.299,1.715,0.398,2.753
		c0.1,1.04,0.149,2.268,0.149,3.682c0.796-0.53,1.652-1.012,2.57-1.442c0.916-0.432,1.874-0.879,2.869-1.344
		c0.994-0.464,2.017-0.979,3.067-1.542c1.05-0.563,2.106-1.244,3.167-2.04l0.033,7.43c-1.371,1.062-2.957,2.057-4.759,2.984
		c-1.803,0.929-3.693,1.748-5.672,2.455c-1.979,0.708-3.979,1.266-6.003,1.675c-2.023,0.408-3.942,0.613-5.754,0.613
		c-1.306,0-2.521-0.122-3.648-0.365c-1.128-0.242-2.118-0.624-2.969-1.144c-0.852-0.519-1.542-1.198-2.072-2.04
		c-0.531-0.84-0.853-1.857-0.962-3.051c-0.311,0.066-0.614,0.111-0.912,0.132c-0.299,0.023-0.593,0.033-0.879,0.033
		c-0.354,0-0.687-0.01-0.995-0.033c-0.311-0.021-0.576-0.104-0.796-0.248c-0.222-0.144-0.398-0.376-0.531-0.696
		c-0.132-0.32-0.198-0.78-0.198-1.377c0-0.53,0.132-1.022,0.397-1.476c0.266-0.452,0.574-0.856,0.929-1.211
		c0.353-0.353,0.707-0.663,1.062-0.929C215.557,57.33,215.822,57.12,216,56.965z M220.245,61.21c0.266,0,0.558,0.166,0.879,0.498
		c0.319,0.331,0.69,0.696,1.111,1.094c0.419,0.398,0.906,0.763,1.459,1.095c0.552,0.332,1.183,0.497,1.891,0.497
		c0.862,0,1.575-0.143,2.14-0.431c0.563-0.286,1.012-0.668,1.343-1.145c0.332-0.475,0.563-1.028,0.696-1.658
		s0.199-1.287,0.199-1.974c0-0.597-0.039-1.204-0.116-1.824c-0.078-0.617-0.178-1.21-0.298-1.774
		c-0.122-0.563-0.255-1.094-0.398-1.592c-0.145-0.497-0.271-0.922-0.382-1.276L220.245,61.21z"/>
	<path fill="#55A145" d="M257.192,49.071c0.906-1.194,1.924-2.476,3.052-3.847c1.127-1.371,2.299-2.647,3.516-3.831
		c1.215-1.182,2.425-2.166,3.631-2.952c1.205-0.784,2.339-1.177,3.4-1.177c0.265,0,0.563,0.05,0.896,0.149
		c0.331,0.1,0.646,0.282,0.944,0.547c0.299,0.266,0.548,0.636,0.747,1.111c0.198,0.476,0.298,1.09,0.298,1.84
		c0,1.505-0.211,2.969-0.63,4.395c-0.421,1.426-0.879,2.853-1.376,4.279c-0.498,1.426-0.952,2.88-1.36,4.361
		c-0.41,1.482-0.613,3.03-0.613,4.644c0,0.885,0.133,1.592,0.397,2.123c0.266,0.53,0.607,0.796,1.028,0.796
		c0.531,0,1.095-0.11,1.691-0.332c0.598-0.22,1.194-0.508,1.791-0.862c0.598-0.353,1.183-0.757,1.758-1.211
		c0.574-0.452,1.116-0.922,1.625-1.409c1.216-1.128,2.738-2.387,3.42-2.019c1.672,0.901,0.93,6.047,0.93,6.047
		c0,0.901-1.105,1.644-1.713,2.107c-0.608,0.465-1.282,0.957-2.022,1.476c-0.742,0.521-1.543,1.045-2.405,1.576
		c-0.862,0.53-1.73,1.001-2.604,1.409c-0.874,0.41-1.747,0.746-2.62,1.012c-0.874,0.266-1.708,0.397-2.504,0.397
		c-1.217,0-2.271-0.325-3.167-0.978c-0.896-0.651-1.632-1.48-2.206-2.488c-0.575-1.005-1.007-2.105-1.293-3.3
		c-0.288-1.194-0.432-2.321-0.432-3.383c0-0.707,0.094-1.497,0.282-2.371c0.187-0.873,0.419-1.752,0.696-2.637
		c0.276-0.884,0.585-1.746,0.929-2.587c0.343-0.84,0.663-1.592,0.962-2.256c0.299-0.663,0.558-1.204,0.779-1.625
		c0.221-0.419,0.365-0.663,0.432-0.729c0,0-0.125-0.611-0.697-0.1c-0.334,0.3-1.011,0.862-1.906,1.857s-1.907,2.251-3.035,3.765
		c-1.128,1.515-2.295,3.217-3.499,5.107c-1.206,1.891-2.295,3.843-3.267,5.854c-0.487,0.995-0.885,1.863-1.194,2.604
		c-0.311,0.742-0.613,1.35-0.912,1.824c-0.298,0.477-0.625,0.835-0.979,1.078c-0.354,0.244-0.808,0.364-1.359,0.364
		c-0.729,0-1.306-0.209-1.725-0.63c-0.421-0.419-0.742-0.979-0.962-1.675c-0.222-0.696-0.365-1.486-0.432-2.371
		c-0.066-0.884-0.1-1.791-0.1-2.72c0-1.48,0.018-3.421,0.05-5.821c0.033-2.398,0.138-5.058,0.315-7.976
		c0.177-2.918,0.432-5.991,0.763-9.22c0.332-3.228,0.801-6.417,1.41-9.568c0.607-3.151,1.37-6.157,2.288-9.021
		c0.917-2.863,2.033-5.384,3.35-7.562c1.314-2.177,2.857-3.908,4.627-5.19c1.769-1.282,3.802-1.924,6.103-1.924
		c1.194,0,2.172,0.178,2.936,0.531c0.763,0.354,1.37,0.852,1.824,1.492c0.452,0.643,0.767,1.41,0.944,2.305
		c0.177,0.896,0.266,1.896,0.266,3.001c0,1.637-0.232,3.449-0.696,5.439c-0.465,1.99-1.078,4.058-1.841,6.202
		c-0.763,2.145-1.631,4.317-2.604,6.517c-0.974,2.201-1.969,4.334-2.985,6.401c-1.018,2.068-2.019,4.019-3.001,5.854
		c-0.984,1.836-1.853,3.449-2.604,4.842L257.192,49.071z M260.145,28.575c1.304-3.383,2.249-6.235,2.835-8.557
		c0.585-2.322,0.879-4.034,0.879-5.141c0-1.68-0.221-2.521-0.663-2.521c-0.576,0-1.426,0.94-2.554,2.819
		c-1.128,1.88-2.454,4.61-3.979,8.192c-0.377,1.217-0.726,2.477-1.045,3.781c-0.321,1.306-0.609,2.604-0.862,3.897
		c-0.255,1.293-0.487,2.566-0.696,3.814c-0.211,1.25-0.394,2.438-0.548,3.565c-0.377,2.632-0.663,5.207-0.862,7.728
		c0.598-1.393,1.248-2.907,1.957-4.544c0.707-1.636,1.403-3.255,2.09-4.859c0.684-1.603,1.331-3.118,1.939-4.544
		C259.243,30.78,259.746,29.569,260.145,28.575z"/>
</g>
</svg>
